<svg width="20" height="20" viewBox="0 0 20 20" fill="none" xmlns="http://www.w3.org/2000/svg">
<path d="M18.5895 8.37593C18.572 8.28792 18.5359 8.20468 18.4835 8.13189C18.431 8.05909 18.3635 7.99844 18.2855 7.95405L15.9551 6.62593L15.9457 3.99937C15.9454 3.90891 15.9255 3.81959 15.8873 3.73758C15.8492 3.65557 15.7936 3.58282 15.7246 3.52437C14.8792 2.80929 13.9057 2.26129 12.8559 1.90952C12.7732 1.88154 12.6856 1.87118 12.5986 1.87912C12.5117 1.88706 12.4274 1.91312 12.3512 1.95562L10.0004 3.26968L7.64727 1.95327C7.57098 1.91053 7.48658 1.88428 7.39951 1.87621C7.31244 1.86813 7.22464 1.87842 7.1418 1.9064C6.09256 2.26043 5.12011 2.81054 4.27617 3.52749C4.20724 3.58586 4.15178 3.65848 4.11361 3.74035C4.07545 3.82222 4.05548 3.91138 4.05508 4.00171L4.04336 6.63062L1.71289 7.95874C1.63493 8.00313 1.56743 8.06378 1.51499 8.13658C1.46255 8.20937 1.4264 8.2926 1.40899 8.38062C1.1957 9.4524 1.1957 10.5557 1.40899 11.6275C1.4264 11.7155 1.46255 11.7987 1.51499 11.8715C1.56743 11.9443 1.63493 12.005 1.71289 12.0494L4.04336 13.3775L4.05274 16.0048C4.05302 16.0953 4.07294 16.1846 4.11111 16.2666C4.14928 16.3486 4.2048 16.4214 4.27383 16.4798C5.1192 17.1949 6.0927 17.7429 7.14258 18.0947C7.22526 18.1227 7.31288 18.133 7.39981 18.1251C7.48673 18.1171 7.57103 18.0911 7.64727 18.0486L10.0004 16.7306L12.3535 18.047C12.4466 18.0989 12.5516 18.1258 12.6582 18.1251C12.7265 18.1251 12.7943 18.114 12.859 18.0923C13.908 17.7385 14.8804 17.1889 15.7246 16.4728C15.7935 16.4144 15.849 16.3418 15.8872 16.2599C15.9253 16.1781 15.9453 16.0889 15.9457 15.9986L15.9574 13.3697L18.2879 12.0416C18.3659 11.9972 18.4334 11.9365 18.4858 11.8637C18.5382 11.7909 18.5744 11.7077 18.5918 11.6197C18.8039 10.5488 18.8031 9.44655 18.5895 8.37593ZM10.0004 13.1251C9.38233 13.1251 8.77814 12.9419 8.26424 12.5985C7.75033 12.2551 7.34979 11.7671 7.11327 11.196C6.87674 10.625 6.81486 9.99668 6.93544 9.39049C7.05602 8.7843 7.35364 8.22748 7.79068 7.79044C8.22772 7.3534 8.78454 7.05577 9.39074 6.93519C9.99693 6.81461 10.6253 6.8765 11.1963 7.11302C11.7673 7.34955 12.2554 7.75009 12.5987 8.26399C12.9421 8.77789 13.1254 9.38208 13.1254 10.0001C13.1254 10.8289 12.7962 11.6238 12.2101 12.2099C11.6241 12.7959 10.8292 13.1251 10.0004 13.1251Z" fill="#A39FB2"/>
</svg>
